<?xml version="1.0" encoding="utf-8"?>
<!-- Generator: Adobe Illustrator 19.1.0, SVG Export Plug-In . SVG Version: 6.00 Build 0)  -->
<!DOCTYPE svg PUBLIC "-//W3C//DTD SVG 1.1//EN" "http://www.w3.org/Graphics/SVG/1.1/DTD/svg11.dtd">
<svg version="1.1" id="curve" xmlns="http://www.w3.org/2000/svg" xmlns:xlink="http://www.w3.org/1999/xlink" x="0px" y="0px"
	 viewBox="24 -239.4 1344.7 1343.4" style="enable-background:new 24 -239.4 1344.7 1343.4;" xml:space="preserve">
<style type="text/css">
	.st0{fill:#ED1C24;}
</style>
<path id="LBottom" class="st0" d="M305.6,873.3H188.8C312,1015,493.5,1104.7,695.9,1105v-83.8C546.2,1021.2,409.5,965.3,305.6,873.3
	z"/>
<path id="LTop" class="st0" d="M695.9-156.3c0.3,0,0.6,0,0.9,0v-0.3c-0.3,0-0.6,0-0.9,0v-83.8c-202.1,0.3-383.4,89.7-506.5,231
	h117.4C410.6-100.8,546.8-156.3,695.9-156.3z"/>
<path id="LMid" class="st0" d="M107.1,432.4L107.1,432.4c0.1-176.1,77.3-334,199.7-441.8H189.4C86.4,108.7,24.1,263.2,24,432.2l0,0
	v0.1v0.1l0,0c0,168.7,62.2,322.9,164.8,440.9h116.9C183.9,765.4,107.1,607.9,107.1,432.4z"/>
<path id="RMid" class="st0" d="M1368.7,432.2L1368.7,432.2c-0.1-169-62.4-323.5-165.4-441.6c-123.2-141.3-304.4-230.7-506.5-231
	v83.8c149.3,0,285.7,55.6,389.5,147.2c122.2,107.9,199.3,265.7,199.3,441.6v0.1c-0.1,175.6-77,333.2-198.9,441
	c-103.9,91.9-240.4,147.6-389.9,147.6c-0.3,0-0.6,0-0.9,0v0.3c0.3,0,0.6,0,0.9,0v83.8c202.5-0.3,384-89.9,507.1-231.7
	c102.6-118.1,164.7-272.2,164.8-440.9l0,0V432.2L1368.7,432.2z"/>
</svg>
