<?xml version="1.0" encoding="utf-8"?>
<!-- Generator: Adobe Illustrator 19.1.0, SVG Export Plug-In . SVG Version: 6.00 Build 0)  -->
<!DOCTYPE svg PUBLIC "-//W3C//DTD SVG 1.1//EN" "http://www.w3.org/Graphics/SVG/1.1/DTD/svg11.dtd">
<svg version="1.1" id="drum" xmlns="http://www.w3.org/2000/svg" xmlns:xlink="http://www.w3.org/1999/xlink" x="0px" y="0px"
	 viewBox="312 -108 1920.2 1080" style="enable-background:new 312 -108 1920.2 1080;" xml:space="preserve">
<style type="text/css">
	.st0{fill:#ED1C24;}
</style>
<path class="st0" d="M741.1,837l-14.4,72.4v0.1c-28.8-5.7-56.7-14.2-83.2-25.2l0.1-0.2l28.2-68.1C693.9,825.2,717.1,832.2,741.1,837
	z"/>
<path class="st0" d="M821.8,845.6v73.9c-29.6,0-58.5-2.9-86.5-8.4V911l14.4-72.4C773.1,843.2,797.1,845.6,821.8,845.6z"/>
<path class="st0" d="M347.1,340.2l72.4,14.4c-4.6,23.3-7,47.4-7,72.1h-73.9C338.6,397.1,341.5,368.2,347.1,340.2L347.1,340.2z"/>
<path class="st0" d="M479.6,658.3l-61.3,41l-0.1,0.1c-16.1-24-29.8-49.6-41-76.6l0.2-0.1l68.1-28.2
	C454.7,616.9,466.2,638.3,479.6,658.3z"/>
<path class="st0" d="M663.7,812.7l-28.2,68.1l-0.1,0.2c-27-11.2-52.6-25-76.6-41l0.1-0.1l41-61.3
	C619.8,791.9,641.2,803.4,663.7,812.7z"/>
<path class="st0" d="M530.4,721.6l-52.2,52.2l-0.1,0.1c-20.5-20.5-39-43-55.2-67.2l0.1-0.1l61.3-41
	C497.9,685.8,513.3,704.5,530.4,721.6z"/>
<path class="st0" d="M419.5,508.4l-72.4,14.4H347c-5.5-28-8.4-56.9-8.4-86.5h73.9C412.5,461,414.9,485.1,419.5,508.4z"/>
<path class="st0" d="M442.1,586.3L374,614.6l-0.2,0.1c-11-26.5-19.5-54.4-25.2-83.2h0.1l72.4-14.4
	C425.9,541,432.9,564.2,442.1,586.3z"/>
<path class="st0" d="M592.5,773.7l-41,61.3l-0.1,0.1c-24.2-16.2-46.7-34.7-67.2-55.2l0.1-0.1l52.2-52.2
	C553.6,744.8,572.4,760.2,592.5,773.7z"/>
<path class="st0" d="M518.2,555.7L449.9,584c-9.2-22.1-16.2-45.3-21-69.3l72.5-14.4C505.2,519.4,510.9,538,518.2,555.7z"/>
<path class="st0" d="M822.6,763.6v73.9c-24.7,0-48.8-2.4-72.1-7L765,758C783.6,761.7,802.9,763.6,822.6,763.6z"/>
<path class="st0" d="M548.2,613.4l-61.5,41.1c-13.4-20-24.8-41.4-34.2-63.9l68.3-28.3C528.3,580.3,537.5,597.4,548.2,613.4z"/>
<path class="st0" d="M427.6,355.4l72.5,14.4c-3.7,18.6-5.6,37.9-5.6,57.7h-73.9C420.6,402.8,423,378.7,427.6,355.4z"/>
<path class="st0" d="M638.8,706l-41.1,61.5c-20.2-13.5-38.9-28.9-56-46l52.3-52.3C607.6,682.8,622.6,695.2,638.8,706z"/>
<path class="st0" d="M695.8,737.2l-28.3,68.3c-22.5-9.3-43.9-20.8-63.9-34.2l41.1-61.5C660.7,720.6,677.8,729.8,695.8,737.2z"/>
<path class="st0" d="M500.1,493.2l-72.5,14.4c-4.6-23.3-7-47.4-7-72.1h73.9C494.5,455.2,496.4,474.5,500.1,493.2z"/>
<path class="st0" d="M757.9,756.7l-14.4,72.5c-24-4.7-47.2-11.8-69.3-21l28.3-68.3C720.1,747.2,738.7,752.9,757.9,756.7z"/>
<path class="st0" d="M588.9,664.1l-52.3,52.3c-17.1-17.1-32.5-35.8-46-56l61.5-41.1C563,635.5,575.3,650.5,588.9,664.1z"/>
<path class="st0" d="M823.4,681.6v73.9c-19.7,0-39-1.9-57.7-5.6l14.4-72.5C794.2,680.2,808.6,681.6,823.4,681.6z"/>
<path class="st0" d="M685,638.2l-41.1,61.4c-16.1-10.8-31.1-23.1-44.8-36.8l52.2-52.2C661.7,620.9,672.9,630.1,685,638.2z"/>
<path class="st0" d="M647.5,606.7L595.3,659c-13.7-13.7-26-28.7-36.8-44.8l61.4-41.1C628,585.2,637.3,596.5,647.5,606.7z"/>
<path class="st0" d="M774.7,676.4l-14.4,72.5c-19.2-3.8-37.8-9.4-55.5-16.8l28.3-68.3C746.3,669.3,760.3,673.6,774.7,676.4z"/>
<path class="st0" d="M727.9,661.8L699.7,730c-18-7.5-35.1-16.6-51.1-27.3l41.1-61.4C701.6,649.3,714.4,656.2,727.9,661.8z"/>
<path class="st0" d="M594.3,525L526,553.3c-7.3-17.7-13-36.2-16.8-55.5l72.5-14.4C584.6,497.8,588.8,511.8,594.3,525z"/>
<path class="st0" d="M616.9,568.5l-61.4,41.1c-10.7-16-19.9-33.1-27.3-51.1l68.3-28.3C602,543.7,608.8,556.5,616.9,568.5z"/>
<path class="st0" d="M580.7,477.9l-72.5,14.4c-3.7-18.6-5.6-37.9-5.6-57.7h73.9C576.5,449.5,577.9,464,580.7,477.9z"/>
<path class="st0" d="M508.2,370.6l72.5,14.4c-2.8,14-4.2,28.4-4.2,43.2h-73.9C502.6,408.6,504.6,389.3,508.2,370.6z"/>
<path class="st0" d="M449.9,279l68.3,28.3c-7.3,17.7-13,36.2-16.8,55.5L429,348.4C433.7,324.3,440.8,301.1,449.9,279z"/>
<path class="st0" d="M374,248.4l68.1,28.2c-9.2,22.1-16.2,45.3-21,69.3l-72.4-14.4h-0.1c5.7-28.8,14.2-56.7,25.2-83.2L374,248.4z"/>
<path class="st0" d="M418.2,163.7l61.3,41c-13.4,20-24.8,41.4-34.2,63.9l-68.1-28.2l-0.2-0.1C388.3,213.3,402.1,187.6,418.2,163.7
	L418.2,163.7z"/>
<path class="st0" d="M486.8,208.5l61.5,41.1c-10.7,16-19.9,33.1-27.3,51.1l-68.3-28.3C461.9,249.9,473.4,228.5,486.8,208.5z"/>
<path class="st0" d="M595.3,204l52.2,52.2c-10.3,10.3-19.5,21.5-27.6,33.6l-61.4-41.1C569.3,232.7,581.6,217.7,595.3,204z"/>
<path class="st0" d="M526,309.7l68.3,28.3c-5.5,13.3-9.7,27.2-12.6,41.6l-72.5-14.4C513,345.9,518.7,327.4,526,309.7z"/>
<path class="st0" d="M555.4,253.4l61.4,41.1c-8,12-14.9,24.8-20.5,38.3L528,304.5C535.6,286.5,544.7,269.4,555.4,253.4z"/>
<path class="st0" d="M478.2,89.3l52.2,52.2c-17.1,17.1-32.5,35.8-46,56l-61.3-41l-0.1-0.1C439.1,132.2,457.6,109.7,478.2,89.3
	L478.2,89.3z"/>
<path class="st0" d="M536.7,146.6l52.3,52.3c-13.7,13.7-26,28.7-36.8,44.8l-61.5-41.1C504.2,182.4,519.6,163.7,536.7,146.6z"/>
<path class="st0" d="M597.7,95.6l41.1,61.5c-16.1,10.8-31.1,23.1-44.8,36.8l-52.3-52.3C558.8,124.5,577.6,109.1,597.7,95.6z"/>
<path class="st0" d="M643.9,163.4l41.1,61.4c-12.1,8.1-23.3,17.3-33.6,27.6l-52.2-52.2C612.8,186.5,627.8,174.1,643.9,163.4z"/>
<path class="st0" d="M699.7,133l28.3,68.3c-13.5,5.6-26.3,12.5-38.3,20.5l-41.1-61.4C664.6,149.6,681.7,140.4,699.7,133z"/>
<path class="st0" d="M667.5,57.5l28.3,68.3c-18,7.5-35.1,16.6-51.1,27.3l-41.1-61.5C623.6,78.3,645,66.8,667.5,57.5z"/>
<path class="st0" d="M743.5,33.8l14.4,72.5c-19.2,3.8-37.8,9.4-55.5,16.8l-28.3-68.3C696.3,45.6,719.4,38.6,743.5,33.8z"/>
<path class="st0" d="M760.3,114.1l14.4,72.5c-14.4,2.8-28.3,7.1-41.6,12.6l-28.3-68.3C722.5,123.6,741,117.9,760.3,114.1z"/>
<path class="st0" d="M823.4,107.5v73.9c-14.8,0-29.3,1.4-43.2,4.2l-14.4-72.5C784.4,109.4,803.7,107.5,823.4,107.5z"/>
<path class="st0" d="M822.6,25.5v73.9c-19.7,0-39,1.9-57.7,5.6l-14.4-72.5C773.9,27.9,797.9,25.5,822.6,25.5z"/>
<path class="st0" d="M551.5,28l41,61.3c-20.2,13.5-38.9,28.9-56,46l-52.2-52.2l-0.1-0.1C504.8,62.5,527.3,44,551.5,28L551.5,28z"/>
<path class="st0" d="M635.5-17.8l28.2,68.1c-22.5,9.3-43.9,20.8-63.9,34.2l-41-61.3l-0.1-0.1c24-16.1,49.6-29.8,76.6-41L635.5-17.8z
	"/>
<path id="snare2" class="st0" d="M726.7-46.4L741.1,26c-24,4.7-47.2,11.8-69.3,21l-28.2-68.1l-0.1-0.2
	C670-32.3,697.9-40.8,726.7-46.4L726.7-46.4z"/>
<path id="snare1" class="st0" d="M821.8-56.5v73.9c-24.7,0-48.8,2.4-72.1,7L735.3-48v-0.1C763.3-53.6,792.2-56.5,821.8-56.5z"/>
</svg>
