<?xml version="1.0" encoding="utf-8"?>
<!-- Generator: Adobe Illustrator 19.1.0, SVG Export Plug-In . SVG Version: 6.00 Build 0)  -->
<!DOCTYPE svg PUBLIC "-//W3C//DTD SVG 1.1//EN" "http://www.w3.org/Graphics/SVG/1.1/DTD/svg11.dtd">
<svg version="1.1" id="Layer_2" xmlns="http://www.w3.org/2000/svg" xmlns:xlink="http://www.w3.org/1999/xlink" x="0px" y="0px"
	 viewBox="0 0 1552.2 1552.7" style="enable-background:new 0 0 1552.2 1552.7;" xml:space="preserve">
<style type="text/css">
	.st0{fill:#54A2D9;}
</style>
<path class="st0" d="M818.9,24.6l-42.8,42.8l-42.8-42.8C337.3,46.8,23.1,374.9,23.1,776.4c0,415.8,337.1,753,753,753
	s753-337.1,753-753C1529,374.9,1214.8,46.8,818.9,24.6z M776.1,1497.6c-398.4,0-721.3-322.9-721.3-721.3
	c0-384.6,301-698.9,680.3-720.1l41,41l41-41c379.3,21.3,680.3,335.5,680.3,720.1C1497.4,1174.7,1174.4,1497.6,776.1,1497.6z"/>
</svg>
