<?xml version="1.0" encoding="utf-8"?>
<!-- Generator: Adobe Illustrator 19.1.0, SVG Export Plug-In . SVG Version: 6.00 Build 0)  -->
<!DOCTYPE svg PUBLIC "-//W3C//DTD SVG 1.1//EN" "http://www.w3.org/Graphics/SVG/1.1/DTD/svg11.dtd">
<svg version="1.1" id="drum" xmlns="http://www.w3.org/2000/svg" xmlns:xlink="http://www.w3.org/1999/xlink" x="0px" y="0px"
	 viewBox="312 -108 1920.2 1080" style="enable-background:new 312 -108 1920.2 1080;" xml:space="preserve">
<style type="text/css">
	.st0{fill:#ED1C24;}
</style>
<path class="st0" d="M1135.4,573.6v73.9c-19.7,0-39-1.9-57.7-5.6l14.4-72.5C1106.2,572.2,1120.6,573.6,1135.4,573.6z"/>
<path class="st0" d="M1086.7,568.4l-14.4,72.5c-19.2-3.8-37.8-9.4-55.5-16.8l28.3-68.3C1058.3,561.3,1072.3,565.6,1086.7,568.4z"/>
<path class="st0" d="M1039.9,553.8l-28.2,68.2c-18-7.5-35.1-16.6-51.1-27.3l41.1-61.4C1013.6,541.3,1026.4,548.2,1039.9,553.8z"/>
<path class="st0" d="M997,530.2l-41.1,61.4c-16.1-10.8-31.1-23.1-44.8-36.8l52.2-52.2C973.7,512.9,984.9,522.1,997,530.2z"/>
<path class="st0" d="M959.5,498.7L907.3,551c-13.7-13.7-26-28.7-36.8-44.8l61.4-41.1C940,477.2,949.3,488.5,959.5,498.7z"/>
<path class="st0" d="M928.9,460.5l-61.4,41.1c-10.7-16-19.9-33.1-27.3-51.1l68.3-28.3C914,435.7,920.8,448.5,928.9,460.5z"/>
<path class="st0" d="M906.3,417L838,445.3c-7.3-17.7-13-36.2-16.8-55.5l72.5-14.4C896.6,389.8,900.8,403.8,906.3,417z"/>
<path class="st0" d="M892.7,369.9l-72.5,14.4c-3.7-18.6-5.6-37.9-5.6-57.7h73.9C888.5,341.5,889.9,356,892.7,369.9z"/>
<path class="st0" d="M820.2,262.6l72.5,14.4c-2.8,14-4.2,28.4-4.2,43.2h-73.9C814.6,300.6,816.6,281.3,820.2,262.6z"/>
<path class="st0" d="M838,201.7l68.3,28.3c-5.5,13.3-9.7,27.2-12.6,41.6l-72.5-14.4C825,237.9,830.7,219.4,838,201.7z"/>
<path class="st0" d="M867.4,145.4l61.4,41.1c-8,12-14.9,24.8-20.5,38.3L840,196.5C847.6,178.5,856.7,161.4,867.4,145.4z"/>
<path class="st0" d="M907.3,96l52.2,52.2c-10.3,10.3-19.5,21.5-27.6,33.6l-61.4-41.1C881.3,124.7,893.6,109.7,907.3,96z"/>
<path class="st0" d="M955.9,55.4l41.1,61.4c-12.1,8.1-23.3,17.3-33.6,27.6l-52.2-52.2C924.8,78.5,939.8,66.1,955.9,55.4z"/>
<path class="st0" d="M1011.7,25l28.3,68.3c-13.5,5.6-26.3,12.5-38.3,20.5l-41.1-61.4C976.6,41.6,993.7,32.4,1011.7,25z"/>
<path class="st0" d="M1072.3,6.1l14.4,72.5c-14.4,2.8-28.3,7.1-41.6,12.6l-28.3-68.3C1034.5,15.6,1053,9.9,1072.3,6.1z"/>
<path id="kik1" class="st0" d="M1135.4-0.5v73.9c-14.8,0-29.3,1.4-43.2,4.2l-14.4-72.5C1096.4,1.4,1115.7-0.5,1135.4-0.5z"/>
<path class="st0" d="M1134.6,655.6v73.9c-24.7,0-48.8-2.4-72.1-7L1077,650C1095.6,653.7,1114.9,655.6,1134.6,655.6z"/>
<path class="st0" d="M1069.9,648.7l-14.4,72.5c-24-4.7-47.2-11.8-69.3-21l28.3-68.3C1032.1,639.2,1050.7,644.9,1069.9,648.7z"/>
<path class="st0" d="M1007.8,629.2l-28.3,68.3c-22.5-9.3-43.9-20.8-63.9-34.2l41.1-61.5C972.7,612.6,989.8,621.8,1007.8,629.2z"/>
<path class="st0" d="M950.8,598l-41.1,61.5c-20.2-13.5-38.9-28.9-56-46l52.3-52.3C919.6,574.8,934.6,587.2,950.8,598z"/>
<path class="st0" d="M900.9,556.1l-52.3,52.3c-17.1-17.1-32.5-35.8-46-56l61.5-41.1C875,527.5,887.3,542.5,900.9,556.1z"/>
<path class="st0" d="M860.2,505.4l-61.5,41.1c-13.4-20-24.8-41.4-34.2-63.9l68.3-28.3C840.3,472.3,849.5,489.4,860.2,505.4z"/>
<path class="st0" d="M830.2,447.7L761.9,476c-9.2-22.1-16.2-45.3-21-69.3l72.5-14.4C817.2,411.4,822.9,430,830.2,447.7z"/>
<path class="st0" d="M812.1,385.2l-72.5,14.4c-4.6-23.3-7-47.4-7-72.1h73.9C806.5,347.2,808.4,366.5,812.1,385.2z"/>
<path class="st0" d="M739.6,247.4l72.5,14.4c-3.7,18.6-5.6,37.9-5.6,57.7h-73.9C732.6,294.8,735,270.7,739.6,247.4z"/>
<path class="st0" d="M761.9,171l68.3,28.3c-7.3,17.7-13,36.2-16.8,55.5L741,240.4C745.7,216.3,752.8,193.1,761.9,171z"/>
<path class="st0" d="M798.8,100.5l61.5,41.1c-10.7,16-19.9,33.1-27.3,51.1l-68.3-28.3C773.9,141.9,785.4,120.5,798.8,100.5z"/>
<path class="st0" d="M848.7,38.6L901,90.9c-13.7,13.7-26,28.7-36.8,44.8l-61.5-41.1C816.2,74.4,831.6,55.7,848.7,38.6z"/>
<path class="st0" d="M909.7-12.4l41.1,61.5c-16.1,10.8-31.1,23.1-44.8,36.8l-52.3-52.3C870.8,16.5,889.6,1.1,909.7-12.4z"/>
<path class="st0" d="M979.5-50.5l28.3,68.3c-18,7.5-35.1,16.6-51.1,27.3l-41.1-61.5C935.6-29.7,957-41.2,979.5-50.5z"/>
<path class="st0" d="M1055.5-74.2l14.4,72.5c-19.2,3.8-37.8,9.4-55.5,16.8l-28.3-68.3C1008.3-62.4,1031.4-69.4,1055.5-74.2z"/>
<path id="snare1" class="st0" d="M1134.6-82.5v73.9c-19.7,0-39,1.9-57.7,5.6l-14.4-72.5C1085.9-80.1,1109.9-82.5,1134.6-82.5z"/>
<path class="st0" d="M1133.8,737.6v73.9c-29.6,0-58.5-2.9-86.5-8.4V803l14.4-72.4C1085.1,735.2,1109.1,737.6,1133.8,737.6z"/>
<path class="st0" d="M1053.1,729l-14.4,72.4v0.1c-28.8-5.7-56.7-14.2-83.2-25.2l0.1-0.2l28.2-68.1
	C1005.9,717.2,1029.1,724.2,1053.1,729z"/>
<path class="st0" d="M975.7,704.7l-28.2,68.1l-0.1,0.2c-27-11.2-52.6-25-76.6-41l0.1-0.1l41-61.3
	C931.8,683.9,953.2,695.4,975.7,704.7z"/>
<path class="st0" d="M904.5,665.7l-41,61.3l-0.1,0.1c-24.2-16.2-46.7-34.7-67.2-55.2l0.1-0.1l52.2-52.2
	C865.6,636.8,884.4,652.2,904.5,665.7z"/>
<path class="st0" d="M842.4,613.6l-52.2,52.2l-0.1,0.1c-20.5-20.5-39-43-55.2-67.2l0.1-0.1l61.3-41
	C809.9,577.8,825.3,596.5,842.4,613.6z"/>
<path class="st0" d="M791.6,550.3l-61.3,41l-0.1,0.1c-16.1-24-29.8-49.6-41-76.6l0.2-0.1l68.1-28.2
	C766.7,508.9,778.2,530.3,791.6,550.3z"/>
<path class="st0" d="M754.1,478.3L686,506.6l-0.2,0.1c-11-26.5-19.5-54.4-25.2-83.2h0.1l72.4-14.4
	C737.9,433,744.9,456.2,754.1,478.3z"/>
<path class="st0" d="M731.5,400.4l-72.4,14.4H659c-5.5-28-8.4-56.9-8.4-86.5h73.9C724.5,353,726.9,377.1,731.5,400.4z"/>
<path class="st0" d="M659.1,232.2l72.4,14.4c-4.6,23.3-7,47.4-7,72.1h-73.9C650.6,289.1,653.5,260.2,659.1,232.2L659.1,232.2z"/>
<path class="st0" d="M686,140.4l68.1,28.2c-9.2,22.1-16.2,45.3-21,69.3l-72.4-14.4h-0.1c5.7-28.8,14.2-56.7,25.2-83.2L686,140.4z"/>
<path class="st0" d="M730.2,55.7l61.3,41c-13.4,20-24.8,41.4-34.2,63.9l-68.1-28.2l-0.2-0.1C700.3,105.3,714.1,79.6,730.2,55.7
	L730.2,55.7z"/>
<path class="st0" d="M790.2-18.7l52.2,52.2c-17.1,17.1-32.5,35.8-46,56l-61.3-41l-0.1-0.1C751.1,24.2,769.6,1.7,790.2-18.7
	L790.2-18.7z"/>
<path class="st0" d="M863.5-80l41,61.3c-20.2,13.5-38.9,28.9-56,46l-52.2-52.2l-0.1-0.1C816.8-45.5,839.3-64,863.5-80L863.5-80z"/>
<path class="st0" d="M947.5-125.8l28.2,68.1c-22.5,9.3-43.9,20.8-63.9,34.2l-41-61.3l-0.1-0.1c24-16.1,49.6-29.8,76.6-41
	L947.5-125.8z"/>
<path id="snare2" class="st0" d="M1038.7-154.4l14.4,72.4c-24,4.7-47.2,11.8-69.3,21l-28.2-68.1l-0.1-0.2
	C982-140.3,1009.9-148.8,1038.7-154.4L1038.7-154.4z"/>
<path id="hat1" class="st0" d="M1133.8-164.5v73.9c-24.7,0-48.8,2.4-72.1,7l-14.4-72.4v-0.1C1075.3-161.6,1104.2-164.5,1133.8-164.5
	z"/>
</svg>
